<svg xmlns="http://www.w3.org/2000/svg"  viewBox="0 0 48 48" width="240px" height="240px"><g id="Layer_1"><path fill="#42a5f5" d="M12.5,44.5c-2,0-8-2-8-9c0-6,7-10.5,10-12c4-2,5-6,5-10c0-6-3.6-10.8-3.6-10.8S27.5,5,27.2,16 c0,0,0.2,8.5-9.5,11.8C7.9,31,9.5,41.5,12.5,44.5z"/><path fill="#42a5f5" d="M15.5,36.5c0,0-3.9-4.6,11-10c11-4,4.9-18.2,4.9-18.2s7.6,4.5,6.9,15.4s-15.8,9.9-15.8,9.9 S17.5,32.5,15.5,36.5z"/><path fill="#42a5f5" d="M17.6,40.9c0,0,0.3-2.3,2.2-3.8c3.6-2.6,9.7,0.6,14.6-0.6c4-1,7-5,7.4-9.5c0,0,6.1,12-6,18.4 c0,0-5-4.4-10.1-5.6C20.5,38.5,18.5,40.5,17.6,40.9z"/></g></svg>