<svg xmlns="http://www.w3.org/2000/svg"  viewBox="0 0 48 48" width="240px" height="240px"><path id="Layer_1" fill="#ef3a3a" d="M27.2,14.4c0.8-3.4,1.6-5.6,1.6-5.6l-6.6-7.2l-0.1,7.9l-10.9,9.2l-2.8-3.1L5.8,25.8c0,0,6.8,7.8,5.5,13 c4.5,2.5,12.1,6.8,12.1,6.8l16.5-13.8l2.6-7.8c0,0-1.8,0.6-2.2-2.1c-1.2-0.1-1.6,0-1.6,0L38,24.1l-5.5-6.4c0,0-7,0.2-10,2 c-4,5.5-4.1,7.4-4.1,7.4l5.2,5.8l4.2-4.8l-1.6-3.2l-2.4,1.2c0,0,0.1-3.6,4.4-3.6c4.5,0,4.6,5.5,4.6,5.5s-1.6,5.8-9,10.1 c-5.8-4.2-8.9-6.4-9.6-11.5C14,19,20,14,27.2,14.4z"/></svg>